# xmcd CD database file
#
# Track frame offsets:
#	150
#	17506
#	33308
#	50831
#	65731
#	81565
#	96615
#	115670
#	139333
#	155494
#	172219
#	190818
#
# Disc length: 2743 seconds
#
# Revision: 0
# Processed by: cddbd v1.5.2PL0 Copyright (c) Steve Scherf et al.
# Submitted via: CDex 1.70beta2
#
DISCID=b10ab50c
DTITLE=Sting - Last Ship
DYEAR=2013
DGENRE=Jazz
TTITLE0=The Last Ship
TTITLE1=Dead Man's Boots
TTITLE2=And Yet
TTITLE3=August Winds
TTITLE4=Language of Birds
TTITLE5=Practical Arrangement
TTITLE6=Practical Arrangement
TTITLE7=Ballad Of The Great Eastern
TTITLE8=What Have We Got? [feat. Jimmy Nail]
TTITLE9=I Love Her But She Loves Someone Else
TTITLE10=So To Speak [feat. Becky Unthank]
TTITLE11=The Last Ship (Reprise)
EXTD=YEAR: 2013
EXTT0=
EXTT1=
EXTT2=
EXTT3=
EXTT4=
EXTT5=
EXTT6=
EXTT7=
EXTT8=
EXTT9=
EXTT10=
EXTT11=
PLAYORDER=
